<svg width="216" height="33" viewBox="0 0 216 33" fill="none" xmlns="http://www.w3.org/2000/svg">
<path d="M76.4962 23.7929V0.23584H80.3665V9.35561C81.3624 8.14686 83.3807 6.89939 85.9193 6.89939C87.1979 6.89939 88.3307 7.18517 89.3181 7.75741C90.3049 8.32897 91.0733 9.13182 91.6233 10.1631C92.1727 11.1957 92.4477 12.4185 92.4477 13.8319V23.7929H88.5777V14.1346C88.5777 12.7885 88.2463 11.7849 87.5848 11.1223C86.9229 10.4611 85.9862 10.1301 84.7751 10.1301C83.406 10.1301 82.3293 10.5844 81.5443 11.4931C80.7588 12.4017 80.3665 13.6971 80.3665 15.3796V23.793L76.4962 23.7929Z" fill="#301432"/>
<path d="M96.7695 23.793V7.16847H100.572V9.08678C100.819 8.39181 102.015 7.10107 104.476 7.10107H106.495V10.534H104.409C103.287 10.534 102.378 10.8312 101.683 11.4257C100.987 12.0203 100.64 12.935 100.64 14.1684V23.7931L96.7695 23.793Z" fill="#301432"/>
<path d="M149.214 5.04857C148.518 5.04857 147.918 4.81871 147.414 4.35833C146.909 3.89861 146.656 3.28724 146.656 2.52429C146.656 1.76192 146.909 1.15055 147.414 0.690244C147.918 0.230531 148.518 0 149.214 0C149.954 0 150.565 0.230531 151.048 0.690244C151.53 1.15063 151.772 1.76201 151.772 2.52429C151.772 3.28732 151.53 3.8987 151.048 4.35833C150.565 4.81871 149.954 5.04857 149.214 5.04857ZM147.296 23.793V7.16848H151.166V23.793H147.296Z" fill="#301432"/>
<path d="M154.684 23.7931V19.1489L164.174 10.8703V10.3654H155.02V7.16846H168.347V11.8126L158.857 20.0913V20.5961H168.616V23.7931H154.684Z" fill="#301432"/>
<path d="M179.604 24.2643C177.944 24.2643 176.48 23.9111 175.213 23.204C173.945 22.4975 172.958 21.4993 172.251 20.2092C171.545 18.919 171.191 17.4106 171.191 15.683V15.2785C171.191 13.5288 171.539 12.0142 172.234 10.7355C172.93 9.45681 173.906 8.464 175.163 7.75756C176.419 7.05053 177.866 6.69727 179.504 6.69727C181.119 6.69727 182.533 7.05044 183.744 7.75756C184.955 8.464 185.898 9.45681 186.571 10.7355C187.244 12.0142 187.58 13.5065 187.58 15.2118V16.5915H175.095C175.14 17.8925 175.6 18.9358 176.475 19.7211C177.35 20.5064 178.427 20.8987 179.706 20.8987C180.962 20.8987 181.893 20.6244 182.499 20.0743C183.104 19.5249 183.564 18.9022 183.879 18.2065L187.076 19.8559C186.761 20.4612 186.307 21.1063 185.713 21.7904C185.118 22.4753 184.327 23.0583 183.34 23.5409C182.352 24.0229 181.108 24.2643 179.604 24.2643ZM175.129 13.6636H183.643C183.553 12.5643 183.132 11.6894 182.381 11.0389C181.629 10.3885 180.659 10.0629 179.47 10.0629C178.236 10.0629 177.249 10.3885 176.509 11.0389C175.768 11.6893 175.308 12.5642 175.129 13.6636Z" fill="#301432"/>
<path d="M116.306 24.3399C111.403 24.3399 107.414 20.3503 107.414 15.4473C107.414 10.5443 111.403 6.55469 116.306 6.55469C121.21 6.55469 125.199 10.5443 125.199 15.4473C125.199 20.3503 121.21 24.3399 116.306 24.3399ZM116.306 10.3805C113.512 10.3805 111.239 12.6533 111.239 15.4473C111.239 18.2413 113.512 20.5141 116.306 20.5141C119.1 20.5141 121.374 18.2413 121.374 15.4473C121.374 12.6533 119.101 10.3805 116.306 10.3805Z" fill="#301432"/>
<path d="M131.841 24.2643V13.9459C131.841 11.8543 133.543 10.1531 135.635 10.1531C137.727 10.1531 139.429 11.8543 139.429 13.9459V24.2643H143.254V13.9459C143.254 9.74522 139.836 6.32715 135.635 6.32715C131.433 6.32715 128.016 9.74522 128.016 13.9459V24.2643H131.841Z" fill="#301432"/>
<path d="M42.2627 24.2643V13.9459C42.2627 11.8543 43.9647 10.1531 46.0566 10.1531C48.1485 10.1531 49.8504 11.8543 49.8504 13.9459V24.2643H53.6757V13.9459C53.6757 9.74522 50.2579 6.32715 46.0566 6.32715C41.8552 6.32715 38.4375 9.74522 38.4375 13.9459V24.2643H42.2627Z" fill="#301432"/>
<path d="M69.179 18.0506C68.9422 18.7158 68.5963 19.2949 68.1197 19.7717C67.413 20.4781 66.3749 20.8313 65.0066 20.8313C64.0865 20.8313 63.2618 20.6298 62.5332 20.226C61.8039 19.8222 61.2317 19.2331 60.8168 18.4593C60.4016 17.6848 60.1942 16.7486 60.1942 15.6493V15.3123C60.1942 14.2136 60.4015 13.2712 60.8168 12.4853C61.2316 11.7008 61.8039 11.1116 62.5332 10.7187C63.2618 10.3264 64.0865 10.1303 65.0066 10.1303C65.9038 10.1303 66.6611 10.2981 67.2781 10.6344C67.8952 10.9714 68.3721 11.4257 68.7085 11.998C68.9206 12.3581 69.0777 12.7458 69.1919 13.155H72.9386L73.0833 13.125C72.8815 11.9137 72.4325 10.8197 71.7372 9.84372C71.0416 8.8677 70.1273 8.09994 68.9946 7.5385C67.8615 6.97841 66.4986 6.69727 64.9058 6.69727C63.2905 6.69727 61.8318 7.03357 60.531 7.70695C59.2294 8.37964 58.2031 9.35567 57.4516 10.6343C56.6997 11.9137 56.3242 13.4505 56.3242 15.2448V15.716C56.3242 17.5116 56.6997 19.0478 57.4516 20.3271C58.2031 21.6058 59.2293 22.5818 60.531 23.2545C61.8319 23.9279 63.2905 24.2642 64.9058 24.2642C66.4986 24.2642 67.8615 23.9784 68.9946 23.4062C70.1273 22.8339 71.0416 22.0655 71.7372 21.1009C72.4027 20.1777 72.8678 19.1592 73.143 18.0507L69.179 18.0506Z" fill="#301432"/>
<path d="M8.27347 23.2574C6.8536 23.2574 5.5842 23.0396 4.50046 22.6108C3.41343 22.1804 2.47637 21.6419 1.71528 21.0084C1.08661 20.4864 0.555198 19.9818 0.135889 19.5095L0 19.3563L2.61294 16.9506L2.75431 17.0943C3.06599 17.4116 3.41925 17.7499 3.80423 18.1017C4.32374 18.5763 4.95275 18.9881 5.67378 19.3257C6.40164 19.6673 7.25401 19.8404 8.20734 19.8404C9.5578 19.8404 10.5793 19.5152 11.2436 18.8738C11.9108 18.2301 12.2489 17.4625 12.2489 16.5926C12.2489 15.5761 11.8294 14.7735 11.0019 14.2067C10.1991 13.6563 8.82226 13.2022 6.79236 12.8186C5.48332 12.5607 4.39494 12.1178 3.55598 11.5013C2.71745 10.8854 2.08321 10.1387 1.67091 9.2818C1.257 8.4226 1.04705 7.51364 1.04705 6.57979C1.04705 5.49942 1.32094 4.48468 1.86112 3.56331C2.40063 2.64304 3.2287 1.88566 4.32256 1.31207C5.42225 0.736292 6.82947 0.443848 8.50493 0.443848C9.64553 0.443848 10.6369 0.568856 11.4516 0.815498C12.2658 1.06214 12.9539 1.36471 13.4969 1.71544C14.0395 2.06667 14.4646 2.41057 14.7605 2.73811L15.2878 3.32696L12.8355 5.63135L12.693 5.50406C12.5619 5.38639 12.3969 5.24215 12.1931 5.06737C11.7944 4.72575 11.2774 4.40952 10.6564 4.12728C10.0259 3.84049 9.25743 3.69574 8.3725 3.69574C7.17396 3.69574 6.27335 3.99443 5.6958 4.58379C5.119 5.17205 4.82673 5.77668 4.82673 6.3819C4.82673 7.2168 5.17021 7.91076 5.8478 8.44588C6.50818 8.96683 7.7311 9.40689 9.58606 9.79153C10.7076 10.0291 11.7721 10.4171 12.7512 10.9437C13.7176 11.4646 14.5089 12.1965 15.1035 13.1197C15.6953 14.0405 15.9956 15.2425 15.9956 16.6916C15.9956 17.9213 15.6628 19.0441 15.0062 20.0288C14.347 21.0175 13.4237 21.8105 12.2619 22.3863C11.0963 22.9644 9.75442 23.2574 8.27347 23.2574Z" fill="#301432"/>
<path d="M30.9569 7.16846V16.3084C30.9552 18.492 29.1783 20.2676 26.9941 20.2676C24.8088 20.2676 23.031 18.4905 23.031 16.3056V7.16846H19.0352V16.3056C19.0352 20.6936 22.6054 24.2642 26.9941 24.2642C27.351 24.2642 27.7022 24.2398 28.0467 24.1935C30.2052 23.8859 31.2476 22.3915 31.2476 22.3915C31.2476 22.3915 31.1399 24.0919 30.8386 25.2931C30.8355 25.3058 30.829 25.3161 30.8251 25.328C30.3813 27.0312 28.8343 28.2936 26.9941 28.2936C25.5874 28.2936 24.3526 27.555 23.6492 26.4474L20.4716 28.8789C20.6656 29.1563 20.8794 29.418 21.1062 29.6682L21.0816 29.6912C22.5395 31.3131 24.6464 32.3409 26.9941 32.3409C31.3828 32.3409 34.953 28.7703 34.953 24.3823V7.16846H30.9569Z" fill="#301432"/>
<path d="M202.141 25.1425C208.045 26.8971 214.253 23.5339 216.007 17.6305L194.629 11.2764C192.874 17.1798 196.238 23.3878 202.141 25.1425Z" fill="#A985BD"/>
<path d="M207.716 12.7831C211.241 12.7831 214.099 9.92514 214.099 6.39962C214.099 2.87411 211.241 0.0161133 207.716 0.0161133C204.19 0.0161133 201.332 2.87411 201.332 6.39962C201.332 9.92514 204.19 12.7831 207.716 12.7831Z" fill="#A985BD"/>
</svg>
