<svg width="346" height="52" viewBox="0 0 346 52" fill="none" xmlns="http://www.w3.org/2000/svg">
<g clip-path="url(#clip0_6053_281)">
<path d="M122.531 38.2562V0.379395H128.731V15.0428C130.326 13.0993 133.559 11.0935 137.625 11.0935C139.673 11.0935 141.488 11.553 143.069 12.4731C144.65 13.3921 145.881 14.683 146.762 16.3411C147.642 18.0015 148.082 19.9675 148.082 22.2402V38.2562H141.883V22.7268C141.883 20.5625 141.353 18.9488 140.293 17.8835C139.233 16.8203 137.732 16.2881 135.792 16.2881C133.599 16.2881 131.875 17.0186 130.617 18.4796C129.359 19.9405 128.731 22.0234 128.731 24.7286V38.2563L122.531 38.2562Z" fill="white"/>
<path d="M155 38.2561V11.526H161.092V14.6104C161.487 13.4929 163.402 11.4176 167.345 11.4176H170.579V16.9373H167.237C165.439 16.9373 163.984 17.4152 162.87 18.3711C161.756 19.327 161.2 20.7977 161.2 22.781V38.2562L155 38.2561Z" fill="white"/>
<path d="M239.007 8.11745C237.893 8.11745 236.932 7.74787 236.123 7.00763C235.315 6.26847 234.91 5.28546 234.91 4.05873C234.91 2.83294 235.315 1.84993 236.123 1.10982C236.932 0.370664 237.893 0 239.007 0C240.193 0 241.172 0.370664 241.945 1.10982C242.717 1.85007 243.104 2.83308 243.104 4.05873C243.104 5.28559 242.717 6.26861 241.945 7.00763C241.172 7.74787 240.193 8.11745 239.007 8.11745ZM235.934 38.2561V11.526H242.134V38.2561H235.934Z" fill="white"/>
<path d="M247.773 38.2562V30.7889L262.975 17.4779V16.6662H248.313V11.5259H269.659V18.9931L254.458 32.3041V33.1158H270.09V38.2562H247.773Z" fill="white"/>
<path d="M287.691 39.0138C285.031 39.0138 282.687 38.4459 280.656 37.309C278.626 36.1731 277.045 34.5681 275.913 32.4937C274.781 30.4193 274.215 27.994 274.215 25.2162V24.5659C274.215 21.7525 274.771 19.3172 275.886 17.2612C276.999 15.2053 278.563 13.609 280.576 12.4731C282.588 11.3363 284.906 10.7683 287.529 10.7683C290.117 10.7683 292.381 11.3362 294.322 12.4731C296.262 13.609 297.771 15.2053 298.849 17.2612C299.927 19.3172 300.467 21.7167 300.467 24.4586V26.677H280.468C280.54 28.7688 281.276 30.4463 282.678 31.709C284.079 32.9715 285.805 33.6023 287.853 33.6023C289.865 33.6023 291.357 33.1613 292.327 32.2769C293.297 31.3935 294.033 30.3922 294.537 29.2737L299.658 31.9257C299.154 32.899 298.426 33.9361 297.475 35.0362C296.522 36.1373 295.255 37.0748 293.674 37.8507C292.092 38.6256 290.098 39.0138 287.691 39.0138ZM280.522 21.9693H294.16C294.015 20.2017 293.342 18.795 292.138 17.7491C290.933 16.7033 289.38 16.1798 287.475 16.1798C285.498 16.1798 283.918 16.7033 282.732 17.7491C281.546 18.7949 280.809 20.2016 280.522 21.9693Z" fill="white"/>
<path d="M186.298 39.1352C178.444 39.1352 172.055 32.7204 172.055 24.837C172.055 16.9536 178.444 10.5388 186.298 10.5388C194.152 10.5388 200.542 16.9536 200.542 24.837C200.542 32.7204 194.152 39.1352 186.298 39.1352ZM186.298 16.6902C181.823 16.6902 178.182 20.3447 178.182 24.837C178.182 29.3293 181.823 32.9837 186.298 32.9837C190.774 32.9837 194.415 29.3293 194.415 24.837C194.415 20.3447 190.774 16.6902 186.298 16.6902Z" fill="white"/>
<path d="M211.178 39.0137V22.4231C211.178 19.0601 213.904 16.3247 217.255 16.3247C220.606 16.3247 223.332 19.0601 223.332 22.4231V39.0137H229.459V22.4231C229.459 15.6689 223.985 10.1731 217.255 10.1731C210.525 10.1731 205.051 15.6689 205.051 22.4231V39.0137H211.178Z" fill="white"/>
<path d="M67.6975 39.0137V22.4231C67.6975 19.0601 70.4237 16.3247 73.7744 16.3247C77.1252 16.3247 79.8514 19.0601 79.8514 22.4231V39.0137H85.9786V22.4231C85.9786 15.6689 80.5041 10.1731 73.7744 10.1731C67.0448 10.1731 61.5703 15.6689 61.5703 22.4231V39.0137H67.6975Z" fill="white"/>
<path d="M110.809 29.0232C110.43 30.0927 109.876 31.0238 109.113 31.7904C107.981 32.9262 106.318 33.4941 104.126 33.4941C102.652 33.4941 101.331 33.1701 100.164 32.5208C98.996 31.8716 98.0794 30.9244 97.4148 29.6803C96.7498 28.435 96.4177 26.9297 96.4177 25.1621V24.6203C96.4177 22.8537 96.7497 21.3385 97.4148 20.0749C98.0793 18.8135 98.996 17.8661 100.164 17.2344C101.331 16.6036 102.652 16.2883 104.126 16.2883C105.563 16.2883 106.776 16.5581 107.765 17.0989C108.753 17.6407 109.517 18.3712 110.056 19.2914C110.395 19.8703 110.647 20.4937 110.83 21.1516H116.831L117.063 21.1034C116.74 19.1558 116.021 17.3969 114.907 15.8275C113.793 14.2582 112.328 13.0237 110.514 12.121C108.699 11.2205 106.516 10.7684 103.965 10.7684C101.377 10.7684 99.0408 11.3092 96.9571 12.3919C94.8723 13.4735 93.2284 15.0428 92.0245 17.0987C90.8201 19.1558 90.2188 21.6267 90.2188 24.5118V25.2694C90.2188 28.1566 90.8201 30.6264 92.0245 32.6835C93.2284 34.7394 94.8721 36.3087 96.9571 37.3903C99.0409 38.473 101.377 39.0138 103.965 39.0138C106.516 39.0138 108.699 38.5543 110.514 37.6342C112.328 36.7141 113.793 35.4786 114.907 33.9277C115.973 32.4433 116.718 30.8056 117.159 29.0233L110.809 29.0232Z" fill="white"/>
<path d="M13.2523 37.3954C10.978 37.3954 8.94469 37.0452 7.20877 36.3558C5.46758 35.6637 3.96662 34.7979 2.7475 33.7793C1.74051 32.9399 0.889308 32.1286 0.217666 31.3692L0 31.1228L4.18537 27.2549L4.41181 27.4859C4.91105 27.9961 5.4769 28.54 6.09355 29.1057C6.92571 29.8687 7.93324 30.5308 9.08818 31.0737C10.2541 31.623 11.6194 31.9013 13.1464 31.9013C15.3095 31.9013 16.9458 31.3783 18.0099 30.347C19.0785 29.3121 19.6202 28.0779 19.6202 26.6792C19.6202 25.0449 18.9481 23.7544 17.6227 22.843C16.3368 21.9581 14.1314 21.2279 10.8799 20.6112C8.78309 20.1964 7.03974 19.4844 5.69592 18.4931C4.35277 17.5028 3.33686 16.3022 2.67643 14.9244C2.01344 13.5429 1.67715 12.0814 1.67715 10.5799C1.67715 8.84282 2.11585 7.21125 2.98111 5.72981C3.84529 4.25014 5.17168 3.03236 6.92382 2.1101C8.68527 1.18432 10.9393 0.714111 13.6231 0.714111C15.4501 0.714111 17.038 0.915108 18.3429 1.31168C19.6472 1.70825 20.7493 2.19473 21.6191 2.75866C22.4882 3.32341 23.1691 3.87635 23.6431 4.40299L24.4877 5.34979L20.5597 9.05494L20.3314 8.85028C20.1214 8.66108 19.8571 8.42916 19.5307 8.14815C18.892 7.59886 18.0639 7.0904 17.0692 6.6366C16.0593 6.17548 14.8284 5.94274 13.411 5.94274C11.4911 5.94274 10.0486 6.42299 9.12344 7.37061C8.19955 8.31646 7.73138 9.28862 7.73138 10.2617C7.73138 11.6042 8.28156 12.7199 9.36691 13.5803C10.4247 14.418 12.3836 15.1255 15.3548 15.744C17.1513 16.1259 18.8564 16.7498 20.4246 17.5965C21.9726 18.4341 23.2401 19.6109 24.1925 21.0952C25.1406 22.5758 25.6216 24.5084 25.6216 26.8384C25.6216 28.8156 25.0884 30.6209 24.0367 32.2042C22.9808 33.794 21.5019 35.069 19.641 35.9948C17.7739 36.9242 15.6245 37.3954 13.2523 37.3954Z" fill="white"/>
<path d="M49.5843 11.526V26.2218C49.5816 29.7328 46.7354 32.5878 43.2368 32.5878C39.7364 32.5878 36.8888 29.7305 36.8888 26.2174V11.526H30.4883V26.2174C30.4883 33.2727 36.207 39.0137 43.2368 39.0137C43.8084 39.0137 44.371 38.9745 44.9228 38.9001C48.3802 38.4055 50.0499 36.0027 50.0499 36.0027C50.0499 36.0027 49.8774 38.7367 49.3949 40.6681C49.3899 40.6886 49.3795 40.705 49.3732 40.7243C48.6623 43.4627 46.1844 45.4926 43.2368 45.4926C40.9835 45.4926 39.0057 44.3049 37.879 42.5241L32.7891 46.4337C33.0999 46.8796 33.4424 47.3005 33.8057 47.7027L33.7662 47.7396C36.1015 50.3475 39.4763 52 43.2368 52C50.2665 52 55.9853 46.259 55.9853 39.2036V11.526H49.5843Z" fill="white"/>
<path d="M323.789 40.4253C333.245 43.2466 343.189 37.8389 346 28.347L311.757 18.1304C308.946 27.6223 314.333 37.604 323.789 40.4253Z" fill="white"/>
<path d="M332.713 20.5532C338.36 20.5532 342.938 15.9579 342.938 10.2894C342.938 4.6208 338.36 0.0255127 332.713 0.0255127C327.066 0.0255127 322.488 4.6208 322.488 10.2894C322.488 15.9579 327.066 20.5532 332.713 20.5532Z" fill="white"/>
</g>
<defs>
<clipPath id="clip0_6053_281">
<rect width="346" height="52" fill="white"/>
</clipPath>
</defs>
</svg>
