<svg width="28" height="28" viewBox="0 0 28 28" fill="none" xmlns="http://www.w3.org/2000/svg">
<path d="M13.9987 2.3335C7.5657 2.3335 2.33203 7.56716 2.33203 14.0002C2.33203 20.4332 7.5657 25.6668 13.9987 25.6668C20.4317 25.6668 25.6654 20.4332 25.6654 14.0002C25.6654 7.56716 20.4317 2.3335 13.9987 2.3335ZM13.9987 23.3335C8.85253 23.3335 4.66536 19.1463 4.66536 14.0002C4.66536 8.854 8.85253 4.66683 13.9987 4.66683C19.1449 4.66683 23.332 8.854 23.332 14.0002C23.332 19.1463 19.1449 23.3335 13.9987 23.3335Z" fill="#301432"/>
<path d="M10.4987 19.8335L19.832 14.0002L10.4987 8.16683V19.8335Z" fill="#301432"/>
</svg>
