<svg width="137" height="145" viewBox="0 0 137 145" fill="none" xmlns="http://www.w3.org/2000/svg">
<g clip-path="url(#clip0_5760_3257)">
<path d="M21.7029 43.6145C22.388 43.9302 22.6521 44.7693 22.3632 45.4173L18.5007 53.8578C18.1045 54.73 17.1719 55.079 16.3053 54.6719L1.31734 47.7102C0.525028 47.3446 0.170136 46.4308 0.533281 45.6333C0.871665 44.8856 1.79603 44.5699 2.58009 44.9354L16.6189 51.4486L19.912 44.2708C20.2091 43.6312 21.0097 43.2905 21.6947 43.6062L21.7029 43.6145Z" fill="#007B78"/>
<path d="M31.0222 32.067C31.6082 32.5572 31.666 33.4129 31.1956 33.9778L24.7993 41.7038C24.1885 42.4432 23.1981 42.5346 22.4718 41.9198L9.92686 31.4024C9.19231 30.7877 9.10153 29.7908 9.71227 29.0597L15.927 21.5497C16.3974 20.9848 17.2393 20.8851 17.8005 21.3586C18.3865 21.8487 18.436 22.7044 17.9738 23.2693L12.6422 29.716L17.1237 33.4793L20.7882 29.0514C21.2586 28.4865 22.0839 28.4117 22.6039 28.8437C23.1404 29.2923 23.2146 30.1314 22.7525 30.6963L19.088 35.1242L23.6356 38.9374L29.1487 32.2747C29.6192 31.7098 30.461 31.6101 31.0222 32.0837V32.067Z" fill="#007B78"/>
<path d="M34.0822 8.99738C34.5114 9.62875 34.3381 10.4678 33.7356 10.8832L30.0877 13.417L38.8939 26.2771C39.3891 26.9998 39.224 28.0051 38.5803 28.4537C37.887 28.9355 36.8966 28.7278 36.4014 28.0051L27.5952 15.145L23.9472 17.6788C23.3447 18.0941 22.5029 17.9612 22.0737 17.3299C21.6446 16.6985 21.8179 15.8594 22.4204 15.444L32.217 8.64846C32.8195 8.23308 33.6613 8.366 34.0905 8.99738H34.0822Z" fill="#007B78"/>
<path d="M39.8692 11.1154L39.4895 6.51298C39.44 5.61576 39.7454 5.109 40.4387 4.80993L41.2888 4.4444C42.1636 4.06225 42.4937 4.47763 42.4195 5.52438L42.1223 10.484C42.0728 11.3064 41.6437 11.647 41.1485 11.8547C40.3231 12.212 39.894 11.8464 39.8609 11.1237L39.8692 11.1154Z" fill="#007B78"/>
<path d="M58.8077 1.89398C59.3277 2.32598 59.6413 2.69151 59.7321 3.14012C59.8724 3.80472 59.4928 4.4361 58.75 4.59394C58.2053 4.71025 57.7348 4.5524 57.3552 4.23671C56.3648 3.38104 55.3661 2.84935 53.798 3.18996C51.8502 3.61365 50.8598 4.89301 51.19 6.41329C51.4541 7.6262 52.4362 8.34064 54.3675 8.63972L55.8201 8.87233C60.0045 9.52032 62.2824 10.5006 62.8849 13.2919C63.6689 16.9639 60.4832 19.6223 57.2974 20.3118C54.9617 20.8186 52.3619 20.3118 50.7195 18.6752C50.4389 18.4177 49.9685 18.0023 49.8447 17.3959C49.7044 16.7313 49.9767 16.0085 50.8021 15.8341C51.4623 15.6928 52.0153 16.0002 52.4197 16.4073C53.6577 17.6368 55.1763 18.0023 56.7362 17.6617C58.4611 17.2879 60.3098 16.1082 59.8477 13.9565C59.4763 12.2203 58.0402 11.8381 55.754 11.4643L54.1446 11.2067C51.1735 10.7249 48.8048 9.73631 48.227 7.02805C47.5585 3.90441 49.8117 1.31246 53.1295 0.589699C55.655 0.0414005 57.5037 0.797388 58.8077 1.90229V1.89398Z" fill="#007B78"/>
<path d="M86.7375 3.54751C87.0511 4.15396 87.1997 4.61088 87.1171 5.05118C86.9933 5.71578 86.3991 6.15608 85.6563 6.01485C85.1033 5.91516 84.7402 5.58286 84.5009 5.14256C83.9149 3.9712 83.1968 3.0906 81.6205 2.79152C79.6644 2.42599 78.2614 3.22352 77.9725 4.75211C77.7497 5.97332 78.3852 7.01176 80.0523 8.0419L81.3068 8.82281C84.9218 11.0492 86.6467 12.8354 86.1267 15.6433C85.45 19.3402 81.4884 20.5531 78.2861 19.9549C75.9422 19.5146 73.7303 18.0442 72.839 15.8925C72.6739 15.5436 72.4098 14.9787 72.5171 14.3639C72.6409 13.6993 73.1691 13.1344 74.0027 13.2923C74.6629 13.4169 75.0591 13.9236 75.2737 14.447C75.9422 16.067 77.205 16.9891 78.7731 17.2799C80.5145 17.6039 82.6604 17.23 83.0648 15.0618C83.3867 13.3089 82.2147 12.4034 80.2422 11.1738L78.8556 10.3099C76.2971 8.71481 74.4896 6.87884 74.9931 4.16227C75.5708 1.02201 78.6493 -0.498267 81.9836 0.124799C84.5256 0.59833 85.9452 2.01061 86.721 3.5392L86.7375 3.54751Z" fill="#007B78"/>
<path d="M107.676 11.5143C107.552 11.7635 107.346 11.9795 107.09 12.129L97.9126 17.1966L94.504 24.042C94.1408 24.7731 93.233 25.0805 92.5067 24.7067C91.7804 24.3328 91.4503 23.419 91.8217 22.6879L95.2303 15.8425L93.7777 5.40821C93.7694 5.11745 93.8189 4.82668 93.9427 4.57746C94.2811 3.89624 95.1147 3.62209 95.8162 3.97101C96.2207 4.17039 96.4682 4.55253 96.559 5.00945L97.7558 14.2059L105.77 9.65337C106.182 9.45399 106.636 9.42907 107.065 9.64506C107.767 10.0023 108.039 10.833 107.701 11.5143H107.676Z" fill="#007B78"/>
<path d="M124.604 27.0162L112.769 39.0788C112.101 39.76 111.284 39.6686 110.722 39.112C110.26 38.6551 110.12 38.0736 110.252 37.3757L112.612 20.7772L103.682 29.8823C103.088 30.4888 102.081 30.5137 101.495 29.9322C100.876 29.3174 100.893 28.2956 101.479 27.6974L113.314 15.6349C113.982 14.9536 114.8 15.045 115.361 15.6016C115.823 16.0585 115.963 16.6401 115.831 17.3379L113.471 33.9364L122.409 24.8313C123.003 24.2249 124.01 24.1999 124.588 24.7815C125.207 25.3962 125.19 26.4181 124.604 27.0162Z" fill="#007B78"/>
<path d="M122.688 54.4642C122.061 54.7799 121.393 54.5805 120.518 54.082C119.173 53.3427 117.959 52.1214 117.06 50.3353C114.831 45.8991 116.259 39.602 121.55 36.9103C126.832 34.2187 132.716 36.8023 134.945 41.2386C135.844 43.0247 136.1 44.736 135.894 46.2646C135.77 47.2781 135.539 47.9344 134.912 48.2501C134.136 48.6489 133.385 48.2667 133.055 47.6104C132.79 47.0788 132.865 46.5969 132.947 46.1483C133.096 45.3757 133.088 43.9883 132.378 42.5761C130.793 39.4275 126.634 37.8989 122.977 39.7598C119.321 41.6207 118.067 45.8991 119.651 49.0477C120.361 50.4599 121.467 51.2907 122.169 51.623C122.581 51.8224 123.01 52.0467 123.274 52.5784C123.605 53.2347 123.456 54.0654 122.68 54.4642H122.688Z" fill="#007B78"/>
<path d="M115.263 102.142C114.578 101.809 114.322 100.97 114.627 100.331L118.605 91.9399C119.018 91.076 119.951 90.7437 120.809 91.1507L135.698 98.3035C136.482 98.6774 136.829 99.5995 136.449 100.389C136.102 101.128 135.178 101.435 134.386 101.062L120.429 94.3574L117.046 101.494C116.74 102.133 115.931 102.466 115.246 102.133L115.263 102.142Z" fill="#007B78"/>
<path d="M105.795 113.581C105.217 113.082 105.176 112.227 105.646 111.67L112.142 104.027C112.761 103.296 113.751 103.221 114.477 103.844L126.89 114.528C127.616 115.151 127.691 116.148 127.072 116.879L120.766 124.306C120.288 124.862 119.446 124.954 118.884 124.472C118.307 123.974 118.265 123.118 118.736 122.561L124.15 116.189L119.718 112.368L115.996 116.746C115.525 117.303 114.692 117.369 114.18 116.929C113.644 116.472 113.586 115.633 114.056 115.076L117.779 110.698L113.281 106.827L107.685 113.415C107.214 113.971 106.364 114.063 105.811 113.581H105.795Z" fill="#007B78"/>
<path d="M102.427 136.618C102.006 135.987 102.188 135.148 102.799 134.732L106.48 132.248L97.8468 119.263C97.3598 118.532 97.5414 117.536 98.1934 117.095C98.8949 116.622 99.8853 116.838 100.364 117.569L108.997 130.553L112.678 128.069C113.289 127.662 114.122 127.804 114.543 128.443C114.964 129.075 114.782 129.914 114.172 130.329L104.284 136.992C103.674 137.399 102.84 137.258 102.419 136.618H102.427Z" fill="#007B78"/>
<path d="M96.6843 134.408L97.0062 139.011C97.0475 139.916 96.7338 140.406 96.0323 140.705L95.174 141.063C94.2909 141.428 93.969 141.013 94.0515 139.966L94.4064 135.015C94.4642 134.192 94.9016 133.86 95.3968 133.652C96.2221 133.303 96.6513 133.677 96.6761 134.4L96.6843 134.408Z" fill="#007B78"/>
<path d="M77.6042 143.38C77.0843 142.94 76.7789 142.566 76.6964 142.126C76.5643 141.461 76.9522 140.838 77.695 140.68C78.248 140.572 78.7102 140.73 79.0898 141.063C80.0637 141.927 81.0624 142.475 82.6305 142.159C84.5865 141.76 85.5851 140.489 85.2798 138.969C85.0322 137.748 84.0583 137.025 82.1353 136.701L80.6827 136.452C76.5065 135.746 74.2451 134.732 73.6839 131.941C72.9494 128.261 76.1682 125.644 79.3622 124.996C81.6979 124.522 84.2976 125.062 85.9235 126.715C86.2041 126.973 86.6581 127.405 86.7819 128.011C86.9139 128.676 86.6333 129.399 85.808 129.565C85.1477 129.698 84.5948 129.382 84.1986 128.967C82.9771 127.721 81.4668 127.33 79.8986 127.654C78.1655 128.003 76.3085 129.158 76.7376 131.318C77.0843 133.062 78.5121 133.461 80.7982 133.86L82.3994 134.142C85.3623 134.666 87.7145 135.679 88.2592 138.396C88.8865 141.528 86.6003 144.095 83.266 144.768C80.7322 145.283 78.8917 144.502 77.6042 143.38Z" fill="#007B78"/>
<path d="M49.7224 141.37C49.417 140.763 49.2767 140.298 49.3592 139.858C49.4913 139.193 50.0855 138.769 50.8366 138.911C51.3895 139.019 51.7527 139.351 51.9755 139.8C52.545 140.979 53.2548 141.868 54.8229 142.184C56.7789 142.574 58.1903 141.793 58.4956 140.265C58.735 139.044 58.116 137.997 56.4571 136.95L55.2108 136.152C51.6206 133.876 49.9205 132.073 50.4734 129.274C51.1997 125.585 55.1778 124.422 58.3718 125.062C60.7075 125.527 62.9029 127.031 63.7695 129.191C63.9263 129.54 64.1904 130.113 64.0666 130.719C63.9345 131.384 63.3981 131.941 62.5727 131.774C61.9125 131.641 61.5246 131.135 61.3182 130.603C60.6662 128.975 59.42 128.036 57.8519 127.72C56.1187 127.371 53.9646 127.72 53.5354 129.88C53.1888 131.625 54.3525 132.547 56.3085 133.801L57.6786 134.682C60.2206 136.31 61.995 138.163 61.4585 140.879C60.8396 144.011 57.7446 145.49 54.4102 144.826C51.8765 144.319 50.4734 142.89 49.7141 141.353L49.7224 141.37Z" fill="#007B78"/>
<path d="M28.8837 133.12C29.0158 132.871 29.2139 132.655 29.4862 132.505L38.7299 127.554L42.2293 120.758C42.6007 120.027 43.5086 119.737 44.2348 120.119C44.9611 120.493 45.2748 121.423 44.8951 122.146L41.3957 128.941L42.7162 139.401C42.7162 139.691 42.6667 139.982 42.5429 140.231C42.1963 140.913 41.3627 141.178 40.6612 140.813C40.265 140.605 40.0174 140.223 39.9349 139.766L38.862 130.553L30.7902 134.998C30.3693 135.197 29.9237 135.214 29.4945 134.998C28.793 134.632 28.5288 133.793 28.8837 133.12Z" fill="#007B78"/>
<path d="M12.1626 117.394L24.1463 105.49C24.8231 104.817 25.6402 104.916 26.1931 105.49C26.6471 105.955 26.7791 106.528 26.6388 107.234L24.072 123.791L33.1176 114.802C33.7201 114.204 34.727 114.196 35.2965 114.777C35.9073 115.4 35.8825 116.422 35.28 117.012L23.2962 128.917C22.6195 129.59 21.8024 129.49 21.2494 128.917C20.7955 128.452 20.6634 127.878 20.8038 127.172L23.3705 110.615L14.3249 119.604C13.7224 120.202 12.7155 120.211 12.1461 119.629C11.5353 119.006 11.5601 117.984 12.1626 117.394Z" fill="#007B78"/>
<path d="M14.4232 89.9625C15.0505 89.6551 15.719 89.8628 16.5938 90.3779C17.9309 91.1339 19.1193 92.3717 19.9942 94.1744C22.1648 98.6439 20.6462 104.916 15.3311 107.533C10.0077 110.15 4.1644 107.491 1.99379 103.03C1.11894 101.228 0.887846 99.5245 1.11068 97.9959C1.24274 96.9907 1.49034 96.3344 2.11758 96.0187C2.90165 95.6366 3.64444 96.0187 3.96632 96.6833C4.22217 97.215 4.14789 97.6968 4.04885 98.1454C3.89204 98.918 3.87553 100.305 4.56881 101.726C6.11217 104.899 10.2471 106.478 13.928 104.667C17.609 102.856 18.913 98.6024 17.3779 95.4289C16.6846 94.0083 15.5869 93.1609 14.8937 92.812C14.481 92.6043 14.0601 92.3717 13.796 91.84C13.4741 91.1837 13.6309 90.3447 14.415 89.9625H14.4232Z" fill="#007B78"/>
<path d="M133.899 74.394C135.357 74.394 136.54 73.2038 136.54 71.7356C136.54 70.2674 135.357 69.0771 133.899 69.0771C132.44 69.0771 131.258 70.2674 131.258 71.7356C131.258 73.2038 132.44 74.394 133.899 74.394Z" fill="#007B78"/>
<path d="M4.47308 74.394C5.93169 74.394 7.11413 73.2038 7.11413 71.7356C7.11413 70.2674 5.93169 69.0771 4.47308 69.0771C3.01447 69.0771 1.83203 70.2674 1.83203 71.7356C1.83203 73.2038 3.01447 74.394 4.47308 74.394Z" fill="#007B78"/>
</g>
<path d="M62.4714 97.0444C75.401 100.85 88.998 93.5555 92.841 80.7512L46.0187 66.9692C42.1756 79.7735 49.5416 93.2386 62.4714 97.0444Z" fill="#007B78"/>
<path d="M74.7734 70.0265C82.5032 70.0265 88.7694 63.7526 88.7694 56.0133C88.7694 48.2739 82.5032 42 74.7734 42C67.0436 42 60.7773 48.2739 60.7773 56.0133C60.7773 63.7526 67.0436 70.0265 74.7734 70.0265Z" fill="#007B78"/>
<defs>
<clipPath id="clip0_5760_3257">
<rect width="136.212" height="145" fill="white" transform="translate(0.394531)"/>
</clipPath>
</defs>
</svg>
