<svg width="102" height="109" viewBox="0 0 102 109" fill="none" xmlns="http://www.w3.org/2000/svg">
<g clip-path="url(#clip0_0_410)">
<path d="M15.8854 32.5107C16.396 32.746 16.5929 33.3715 16.3776 33.8545L13.4984 40.1461C13.2031 40.7963 12.5079 41.0564 11.862 40.753L0.689781 35.5636C0.0991818 35.2912 -0.165358 34.61 0.105334 34.0155C0.357569 33.4582 1.0466 33.2229 1.63105 33.4953L12.0957 38.3503L14.5504 32.9999C14.7719 32.5231 15.3686 32.2692 15.8793 32.5045L15.8854 32.5107Z" fill="#007B78"/>
<path d="M22.8311 23.9031C23.2679 24.2685 23.311 24.9063 22.9603 25.3274L18.1924 31.0864C17.7372 31.6376 16.9989 31.7057 16.4576 31.2474L7.1064 23.4077C6.55886 22.9495 6.49119 22.2063 6.94644 21.6614L11.579 16.0634C11.9296 15.6423 12.5571 15.568 12.9755 15.9209C13.4123 16.2863 13.4492 16.9241 13.1047 17.3452L9.13043 22.1506L12.471 24.9558L15.2025 21.6552C15.5532 21.2341 16.1684 21.1784 16.556 21.5004C16.9559 21.8348 17.0112 22.4602 16.6667 22.8813L13.9352 26.182L17.325 29.0243L21.4346 24.0579C21.7853 23.6368 22.4128 23.5625 22.8311 23.9155V23.9031Z" fill="#007B78"/>
<path d="M25.1135 6.70644C25.4334 7.17707 25.3042 7.80252 24.8551 8.11215L22.1359 10.0009L28.7002 19.5869C29.0693 20.1257 28.9463 20.875 28.4664 21.2093C27.9496 21.5685 27.2114 21.4137 26.8423 20.875L20.278 11.2889L17.5588 13.1776C17.1097 13.4873 16.4822 13.3882 16.1623 12.9176C15.8423 12.4469 15.9715 11.8215 16.4206 11.5118L23.7232 6.44635C24.1723 6.13673 24.7998 6.23581 25.1197 6.70644H25.1135Z" fill="#007B78"/>
<path d="M29.4261 8.28554L29.1431 4.85487C29.1062 4.18608 29.3339 3.80834 29.8506 3.58541L30.4843 3.31293C31.1364 3.02808 31.3825 3.3377 31.3271 4.11796L31.1057 7.8149C31.0687 8.42796 30.7488 8.68186 30.3797 8.83667C29.7645 9.10295 29.4446 8.83048 29.42 8.29173L29.4261 8.28554Z" fill="#007B78"/>
<path d="M43.5451 1.41182C43.9327 1.73383 44.1665 2.00631 44.2342 2.3407C44.3388 2.83611 44.0558 3.30674 43.5021 3.4244C43.096 3.51109 42.7454 3.39343 42.4624 3.15812C41.7241 2.52029 40.9797 2.12396 39.8108 2.37786C38.3589 2.69368 37.6207 3.64733 37.8668 4.78056C38.0636 5.68467 38.7957 6.21723 40.2353 6.44016L41.3181 6.61355C44.4372 7.09657 46.1352 7.82729 46.5843 9.90798C47.1687 12.6451 44.794 14.6267 42.4193 15.1407C40.6783 15.5184 38.7404 15.1407 37.5161 13.9207C37.3069 13.7288 36.9563 13.4191 36.864 12.9671C36.7594 12.4717 36.9624 11.9329 37.5776 11.8029C38.0698 11.6976 38.482 11.9267 38.7834 12.2302C39.7063 13.1467 40.8382 13.4191 42.001 13.1652C43.2868 12.8866 44.6648 12.0072 44.3203 10.4034C44.0435 9.10914 42.973 8.82428 41.2689 8.54562L40.0692 8.35365C37.8545 7.99448 36.0888 7.25757 35.6582 5.23881C35.1599 2.91042 36.8394 0.978346 39.3125 0.439596C41.1951 0.0308886 42.5731 0.594409 43.5451 1.41802V1.41182Z" fill="#007B78"/>
<path d="M64.3638 2.64414C64.5976 3.09619 64.7083 3.43678 64.6468 3.76499C64.5545 4.26039 64.1115 4.58859 63.5579 4.48332C63.1457 4.40901 62.875 4.16131 62.6966 3.8331C62.2598 2.95996 61.7245 2.30355 60.5495 2.08062C59.0914 1.80815 58.0456 2.40263 57.8303 3.54206C57.6642 4.45236 58.1379 5.22642 59.3806 5.9943L60.3157 6.5764C63.0103 8.23599 64.2961 9.56739 63.9085 11.6605C63.404 14.4161 60.4511 15.3203 58.064 14.8744C56.3169 14.5462 54.6681 13.4501 54.0037 11.8462C53.8806 11.5862 53.6838 11.1651 53.7637 10.7068C53.856 10.2114 54.2498 9.79032 54.8711 9.90798C55.3633 10.0009 55.6586 10.3786 55.8185 10.7687C56.3169 11.9763 57.2581 12.6637 58.427 12.8804C59.7251 13.1219 61.3246 12.8432 61.6261 11.227C61.866 9.92036 60.9924 9.24538 59.5221 8.32888L58.4885 7.68486C56.5814 6.49589 55.2341 5.12734 55.6094 3.10239C56.04 0.761609 58.3347 -0.371624 60.8202 0.0928156C62.715 0.44579 63.7732 1.49852 64.3515 2.63795L64.3638 2.64414Z" fill="#007B78"/>
<path d="M79.9716 8.58278C79.8793 8.76855 79.7255 8.92956 79.5348 9.04102L72.6937 12.8185L70.1529 17.9211C69.8822 18.4661 69.2055 18.6952 68.6641 18.4165C68.1227 18.1379 67.8766 17.4567 68.1535 16.9117L70.6943 11.8091L69.6115 4.03127C69.6054 3.81453 69.6423 3.59779 69.7345 3.41201C69.9868 2.90422 70.6081 2.69987 71.1311 2.95996C71.4325 3.10858 71.6171 3.39343 71.6848 3.73402L72.5768 10.5892L78.5505 7.19565C78.8581 7.04703 79.1964 7.02845 79.5163 7.18946C80.0393 7.45573 80.2423 8.07499 79.9901 8.58278H79.9716Z" fill="#007B78"/>
<path d="M92.5895 20.138L83.7674 29.1296C83.2691 29.6374 82.6601 29.5693 82.2417 29.1544C81.8972 28.8138 81.7926 28.3803 81.891 27.8601L83.6505 15.4874L76.994 22.2745C76.551 22.7265 75.8005 22.7451 75.3637 22.3116C74.9023 21.8534 74.9146 21.0917 75.3514 20.6458L84.1735 11.6543C84.6718 11.1465 85.2808 11.2146 85.6992 11.6295C86.0437 11.9701 86.1483 12.4036 86.0498 12.9237L84.2904 25.2964L90.9531 18.5094C91.396 18.0573 92.1466 18.0388 92.5772 18.4722C93.0386 18.9305 93.0263 19.6922 92.5895 20.138Z" fill="#007B78"/>
<path d="M91.1622 40.5982C90.6947 40.8335 90.1964 40.6849 89.5442 40.3133C88.5414 39.7622 87.6371 38.8519 86.9665 37.5205C85.3055 34.2137 86.3698 29.5197 90.3132 27.5133C94.2506 25.507 98.637 27.4328 100.298 30.7397C100.969 32.071 101.159 33.3467 101.006 34.4861C100.913 35.2416 100.741 35.7308 100.273 35.9661C99.6952 36.2634 99.1353 35.9785 98.8892 35.4893C98.6924 35.093 98.7477 34.7338 98.8093 34.3994C98.92 33.8235 98.9138 32.7894 98.3848 31.7366C97.2036 29.3897 94.1029 28.2503 91.3776 29.6374C88.6522 31.0245 87.7171 34.2137 88.8983 36.5606C89.4273 37.6134 90.2517 38.2326 90.7747 38.4803C91.0823 38.6289 91.4022 38.7961 91.599 39.1925C91.8451 39.6817 91.7344 40.3009 91.1561 40.5982H91.1622Z" fill="#007B78"/>
<path d="M85.6254 76.1371C85.1147 75.8894 84.924 75.264 85.1516 74.7871L88.1169 68.5327C88.4245 67.8887 89.1197 67.641 89.7595 67.9444L100.858 73.2762C101.442 73.5548 101.701 74.2422 101.418 74.8305C101.159 75.3816 100.47 75.6107 99.8797 75.3321L89.4766 70.3347L86.9542 75.6541C86.7266 76.1309 86.1237 76.3786 85.6131 76.1309L85.6254 76.1371Z" fill="#007B78"/>
<path d="M78.5689 84.6642C78.1383 84.2927 78.1075 83.6548 78.4582 83.2399L83.2999 77.5428C83.7613 76.9979 84.4995 76.9421 85.0409 77.4066L94.2936 85.3702C94.835 85.8346 94.8904 86.5777 94.429 87.1227L89.7288 92.6588C89.372 93.0737 88.7445 93.1418 88.3261 92.7826C87.8955 92.4111 87.8647 91.7733 88.2154 91.3584L92.2511 86.6087L88.9475 83.7601L86.1729 87.0236C85.8222 87.4385 85.2009 87.488 84.8194 87.1598C84.4195 86.8192 84.3765 86.1938 84.7272 85.7789L87.5017 82.5154L84.1489 79.6297L79.9777 84.5404C79.6271 84.9553 78.9934 85.0234 78.5812 84.6642H78.5689Z" fill="#007B78"/>
<path d="M76.0589 101.836C75.7451 101.365 75.8805 100.74 76.3357 100.43L79.0795 98.5788L72.6445 88.8999C72.2815 88.355 72.4168 87.6119 72.9029 87.2837C73.4258 86.9307 74.164 87.0917 74.5209 87.6366L80.9559 97.3156L83.6998 95.464C84.155 95.1606 84.7764 95.2658 85.0901 95.7427C85.4039 96.2133 85.2685 96.8387 84.8133 97.1484L77.4431 102.115C76.9878 102.418 76.3665 102.313 76.0527 101.836H76.0589Z" fill="#007B78"/>
<path d="M71.777 100.189L72.017 103.62C72.0477 104.295 71.8139 104.66 71.291 104.883L70.6512 105.149C69.9929 105.422 69.753 105.112 69.8145 104.332L70.0791 100.641C70.1221 100.028 70.4482 99.7802 70.8173 99.6254C71.4325 99.3653 71.7524 99.644 71.7709 100.183L71.777 100.189Z" fill="#007B78"/>
<path d="M57.5534 106.877C57.1659 106.549 56.9382 106.27 56.8767 105.942C56.7783 105.446 57.0674 104.982 57.6211 104.864C58.0333 104.784 58.3778 104.901 58.6608 105.149C59.3867 105.793 60.1312 106.202 61.3 105.967C62.7581 105.669 63.5025 104.722 63.2749 103.589C63.0903 102.678 62.3644 102.14 60.9309 101.898L59.8482 101.712C56.7352 101.186 55.0495 100.43 54.6312 98.3497C54.0837 95.6064 56.483 93.6558 58.8638 93.1728C60.6049 92.8198 62.5428 93.2223 63.7547 94.4546C63.9639 94.6466 64.3023 94.9686 64.3945 95.4206C64.493 95.9161 64.2838 96.4548 63.6686 96.5787C63.1764 96.6777 62.7642 96.4424 62.4689 96.1328C61.5584 95.2039 60.4326 94.9129 59.2637 95.1544C57.9718 95.4145 56.5876 96.2752 56.9075 97.8853C57.1659 99.1857 58.2302 99.483 59.9343 99.7802L61.1278 99.9907C63.3364 100.381 65.0897 101.136 65.4958 103.161C65.9633 105.496 64.2592 107.409 61.7738 107.911C59.8851 108.295 58.5132 107.713 57.5534 106.877Z" fill="#007B78"/>
<path d="M36.7717 105.378C36.5441 104.926 36.4395 104.579 36.501 104.251C36.5995 103.756 37.0424 103.44 37.6022 103.545C38.0144 103.626 38.2851 103.873 38.4512 104.208C38.8757 105.087 39.4048 105.75 40.5737 105.985C42.0317 106.276 43.0837 105.694 43.3114 104.555C43.4898 103.644 43.0284 102.864 41.7918 102.084L40.8628 101.489C38.1867 99.7926 36.9194 98.4488 37.3316 96.3619C37.8729 93.6124 40.8382 92.7455 43.2191 93.2223C44.9601 93.5691 46.5966 94.6899 47.2425 96.3C47.3594 96.5601 47.5563 96.9874 47.464 97.4394C47.3656 97.9348 46.9657 98.3497 46.3505 98.2259C45.8583 98.1268 45.5692 97.749 45.4154 97.3527C44.9294 96.139 44.0004 95.4392 42.8315 95.2039C41.5396 94.9438 39.9339 95.2039 39.614 96.814C39.3556 98.1144 40.223 98.8018 41.6811 99.7368L42.7023 100.393C44.5972 101.607 45.9198 102.988 45.52 105.013C45.0586 107.347 42.7515 108.45 40.2661 107.954C38.3774 107.577 37.3316 106.511 36.7656 105.366L36.7717 105.378Z" fill="#007B78"/>
<path d="M21.2377 99.229C21.3361 99.0433 21.4838 98.8823 21.6868 98.7708L28.5771 95.08L31.1856 90.0146C31.4625 89.4696 32.1392 89.2529 32.6806 89.5377C33.222 89.8164 33.4557 90.51 33.1727 91.0487L30.5643 96.1142L31.5486 103.911C31.5486 104.127 31.5117 104.344 31.4194 104.53C31.161 105.038 30.5397 105.236 30.0167 104.963C29.7214 104.809 29.5369 104.524 29.4753 104.183L28.6756 97.3155L22.6588 100.629C22.3451 100.777 22.0129 100.79 21.693 100.629C21.17 100.356 20.9732 99.7306 21.2377 99.229Z" fill="#007B78"/>
<path d="M8.77361 87.5066L17.7064 78.6327C18.2109 78.1311 18.82 78.2054 19.2321 78.6327C19.5705 78.9795 19.6689 79.4067 19.5644 79.9331L17.6511 92.2748L24.3937 85.5745C24.8428 85.1286 25.5934 85.1225 26.0179 85.5559C26.4731 86.0204 26.4547 86.7821 26.0056 87.2217L17.0728 96.0956C16.5683 96.5972 15.9592 96.5229 15.547 96.0956C15.2087 95.7488 15.1102 95.3216 15.2148 94.7952L17.1281 82.4535L10.3855 89.1538C9.93635 89.5997 9.1858 89.6058 8.76131 89.1724C8.30605 88.7079 8.32451 87.9462 8.77361 87.5066Z" fill="#007B78"/>
<path d="M10.4593 67.0589C10.9268 66.8297 11.4252 66.9845 12.0773 67.3685C13.0739 67.932 13.9598 68.8547 14.6119 70.1985C16.2299 73.5301 15.0979 78.2054 11.136 80.1561C7.16792 82.1067 2.81225 80.1251 1.19425 76.7997C0.542132 75.4559 0.369873 74.1865 0.53598 73.047C0.634413 72.2977 0.818975 71.8085 1.28653 71.5732C1.87098 71.2884 2.42467 71.5732 2.6646 72.0686C2.85531 72.4649 2.79994 72.8241 2.72612 73.1585C2.60923 73.7344 2.59693 74.7686 3.1137 75.8275C4.26414 78.193 7.34633 79.3696 10.0902 78.0196C12.834 76.6697 13.806 73.4991 12.6617 71.1335C12.1449 70.0746 11.3267 69.443 10.8099 69.1829C10.5023 69.0281 10.1886 68.8547 9.99172 68.4584C9.75179 67.9692 9.86868 67.3437 10.4531 67.0589H10.4593Z" fill="#007B78"/>
<path d="M99.5168 55.454C100.604 55.454 101.485 54.5668 101.485 53.4724C101.485 52.378 100.604 51.4908 99.5168 51.4908C98.4295 51.4908 97.5481 52.378 97.5481 53.4724C97.5481 54.5668 98.4295 55.454 99.5168 55.454Z" fill="#007B78"/>
<path d="M3.03987 55.454C4.12714 55.454 5.00854 54.5668 5.00854 53.4724C5.00854 52.378 4.12714 51.4908 3.03987 51.4908C1.95261 51.4908 1.07121 52.378 1.07121 53.4724C1.07121 54.5668 1.95261 55.454 3.03987 55.454Z" fill="#007B78"/>
</g>
<defs>
<clipPath id="clip0_0_410">
<rect width="101.534" height="108.084" fill="white" transform="translate(0.000747681 -7.62939e-05)"/>
</clipPath>
</defs>
</svg>
