<svg width="662" height="182" viewBox="0 0 662 182" fill="none" xmlns="http://www.w3.org/2000/svg">
<rect opacity="0.1" x="282.859" y="84.9214" width="60.9183" height="135.826" rx="13" transform="rotate(114.494 282.859 84.9214)" fill="#E8D1E5"/>
<path d="M72 75.4886C72 33.7838 39.7557 6.9511e-06 0 0L-2.64017e-05 151C39.7774 151 72 117.193 72 75.5114L72 75.4886Z" fill="#422744"/>
<path d="M464.779 37.8338C429.544 58.177 416.857 102.12 436.406 135.981L563.983 62.3245C544.423 28.4449 500.015 17.4906 464.799 37.8227L464.779 37.8338Z" fill="#422744"/>
<path fill-rule="evenodd" clip-rule="evenodd" d="M155.639 182L186.317 147.103C189.594 143.376 187.843 137.422 183.164 136.376L122.188 122.801C117.218 121.693 112.013 123.442 108.524 127.406L65.7756 175.986C64.2296 177.745 63.8029 179.999 64.2751 182L155.639 182Z" fill="#422744"/>
<path fill-rule="evenodd" clip-rule="evenodd" d="M571.268 182L591.806 161.462C596.882 156.385 596.882 148.154 591.806 143.077L559.46 110.731C554.383 105.655 546.152 105.655 541.075 110.731L508.73 143.077C503.653 148.154 503.653 156.385 508.73 161.462L529.268 182L571.268 182Z" fill="#422744"/>
<path fill-rule="evenodd" clip-rule="evenodd" d="M662 9.00006L627.429 9.00006C620.563 9.00006 615 14.8066 615 21.974L615 95.705C615 122.845 636.057 144.873 662 145L662 9.00006Z" fill="#422744"/>
<circle cx="347" cy="136" r="33" fill="#422744"/>
</svg>
