<svg width="664" height="181" viewBox="0 0 664 181" fill="none" xmlns="http://www.w3.org/2000/svg">
<rect opacity="0.4" x="431.823" y="158.352" width="70.6812" height="70.6812" rx="12" transform="rotate(-120 431.823 158.352)" stroke="#8CDFDD" stroke-width="2"/>
<circle opacity="0.4" cx="225" cy="120" r="28" transform="rotate(-180 225 120)" stroke="#8CDFDD" stroke-width="2"/>
<path d="M126 62.5C126 47.3122 138.312 35 153.5 35C168.688 35 181 47.3122 181 62.5C181 77.6878 168.688 90 153.5 90C138.312 90 126 77.6878 126 62.5Z" stroke="#38A3A0" stroke-width="2"/>
<line opacity="0.4" x1="196" y1="121" x2="-8.74228e-08" y2="121" stroke="#8CDFDD" stroke-width="2"/>
<path d="M184.392 83.5318L88.0442 24.4007C81.9176 20.6526 74 24.8537 74 31.578L74 150.427C74 157.119 81.9193 161.351 88.043 157.605L184.392 83.5318ZM184.392 83.5318L184.392 83.5694L184.872 83.8617C190.373 87.2176 190.38 94.7869 184.868 98.1814L88.0442 157.605L184.392 83.5318Z" fill="#007B78" fill-opacity="0.1" stroke="#38A3A0" stroke-width="2"/>
<line opacity="0.4" y1="-1" x2="41" y2="-1" transform="matrix(3.26837e-08 -1 -1 -2.98687e-08 544 181)" stroke="#8CDFDD" stroke-width="2"/>
<line opacity="0.4" y1="-1" x2="41" y2="-1" transform="matrix(1.54607e-07 -1 -1 4.05141e-08 582 181)" stroke="#8CDFDD" stroke-width="2"/>
<path d="M663 1.00821L663 133.992C628.722 133.428 601 103.941 601 67.5102L601 67.4898C601 31.0791 628.704 1.57187 663 1.00821Z" stroke="#38A3A0" stroke-width="2"/>
<path d="M565.821 61.7607L565.821 61.7607L632.647 61.7128C636.933 61.714 639.782 66.6301 637.557 70.6906L604.306 131.357C604.306 131.357 604.305 131.357 604.305 131.358C601.755 136.006 597.053 138.837 591.979 138.863C591.978 138.863 591.977 138.863 591.977 138.863L525.106 138.908C525.106 138.908 525.105 138.908 525.105 138.908C520.819 138.906 517.971 133.99 520.196 129.93L553.498 69.2413C556.049 64.5918 560.751 61.7624 565.821 61.7607Z" stroke="#38A3A0" stroke-width="2"/>
<mask id="path-10-inside-1_5962_3029" fill="white">
<path fill-rule="evenodd" clip-rule="evenodd" d="M459.042 181L459.042 139.809C459.042 131.628 452.124 125 443.584 125L355.734 125C323.397 125 297.15 150.089 297 181L459.042 181Z"/>
</mask>
<path d="M459.042 181L459.042 183L461.042 183L461.042 181L459.042 181ZM443.584 125L443.584 127L443.584 125ZM355.734 125L355.734 123L355.734 125ZM297 181L295 180.99L294.99 183L297 183L297 181ZM461.042 181L461.042 139.809L457.042 139.809L457.042 181L461.042 181ZM461.042 139.809C461.042 130.443 453.146 123 443.584 123L443.584 127C451.101 127 457.042 132.812 457.042 139.809L461.042 139.809ZM443.584 123L355.734 123L355.734 127L443.584 127L443.584 123ZM355.734 123C322.376 123 295.156 148.901 295 180.99L299 181.01C299.144 151.278 324.418 127 355.734 127L355.734 123ZM297 183L459.042 183L459.042 179L297 179L297 183Z" fill="#38A3A0" mask="url(#path-10-inside-1_5962_3029)"/>
</svg>
